<?xml version="1.0" encoding="iso-8859-1"?>
<!-- Generator: Adobe Illustrator 16.0.0, SVG Export Plug-In . SVG Version: 6.00 Build 0)  -->
<!DOCTYPE svg PUBLIC "-//W3C//DTD SVG 1.1//EN" "http://www.w3.org/Graphics/SVG/1.1/DTD/svg11.dtd">
<svg version="1.1" id="Capa_1" xmlns="http://www.w3.org/2000/svg" xmlns:xlink="http://www.w3.org/1999/xlink" x="0px" y="0px"
	 width="572.934px" height="572.934px" viewBox="0 0 572.934 572.934" style="enable-background:new 0 0 572.934 572.934;"
	 xml:space="preserve">
<g>
	<path d="M472.484,43.754c13.771-7.344,16.218-26.622,3.979-37.944c-5.202-4.59-12.547-7.344-19.278-4.896
		c-4.59,1.53-7.344,4.896-9.18,8.874c-5.509-6.426-14.076-9.486-23.257-5.202c-4.896,2.448-8.262,6.426-8.874,11.934
		c-0.306,1.836,0,3.672,0.918,5.508c-5.813,0-11.628,1.53-16.218,5.508c-5.813,5.508-6.12,14.688-3.06,21.726
		c3.06,7.344,9.485,14.076,17.748,14.994c7.649,0.918,17.441-3.366,20.195-11.016c7.345,14.688,14.994,25.092,15.606,43.452
		c0.612,22.338-12.546,38.862-34.578,42.228c-0.306,0-0.612,0.306-0.918,0.612c-29.682-71.298-91.8-128.52-176.256-86.598
		c-30.906,15.3-53.856,38.556-70.38,66.708c-0.306,0-0.612-0.306-0.918-0.306c-13.464,0-24.786-5.202-33.966-15.3
		c-9.18-10.098-7.956-19.584-3.366-30.294c6.732,7.956,18.054,15.912,27.54,12.546c9.18-3.366,12.24-14.076,12.852-22.95
		c0.612-8.874-1.53-19.584-8.874-25.092c-5.814-4.284-12.24-2.448-17.748,1.53c-0.306-1.224-0.306-2.448-0.612-3.672
		c-2.142-6.12-7.344-10.404-13.77-11.016c-6.12-0.612-12.24,2.754-15.606,7.65c-1.224,1.53-1.836,3.366-2.448,4.896
		c-3.366-3.672-7.65-6.426-12.852-6.12c-8.568,0.612-13.464,9.18-14.994,16.83c-1.53,7.65-1.224,17.442,4.59,23.256
		c2.754,2.754,5.814,3.672,9.18,3.672c-8.874,14.382-3.672,34.578,7.038,48.348c7.65,9.486,16.83,16.83,28.152,21.42
		c6.12,2.448,18.054,3.672,23.868-1.53c-49.266,115.362-12.546,291.618,38.25,385.56c-12.852,0.612-29.376,7.345-30.294,20.809
		s18.054,17.748,27.846,17.748c14.994,0,33.354-10.404,37.944-25.398c5.814-18.666,6.426-41.616,5.508-61.2
		c-0.306-3.06-4.59-3.672-5.508-0.611c-7.344,23.256,1.224,55.08-22.338,70.38c-8.568,5.508-20.502,6.731-29.376,1.53
		c-9.18-5.509,20.808-14.076,23.868-15.606s2.142-5.202,0-6.732c-52.02-119.646-86.598-294.372-17.442-412.793
		c19.584-33.354,52.02-53.856,88.74-63.342c72.829-18.36,114.75,44.982,134.947,103.734c17.748,50.796,22.644,105.57,20.808,159.12
		c-1.224,38.861-9.18,77.111-18.054,114.75c-2.448,10.098-19.278,91.8-26.316,93.33c-7.956,1.836-4.59,14.075,3.366,12.239
		c0.918-0.306,1.225-0.918,2.143-1.224c12.852,2.448,25.397,6.426,11.934,19.584c-10.404,9.792-27.234,8.262-34.578-4.284
		c-6.426-11.016-3.672-30.906-3.672-43.452c0-11.628,0.918-23.562,1.53-35.189c0-2.143-1.836-2.754-3.366-2.448
		c3.06-3.672,5.508-7.344,7.038-11.628s-4.284-7.038-7.344-4.284c-30.294,28.152-101.593,51.103-131.581,8.568
		c-1.53-2.143-4.59-0.307-3.366,2.142c18.972,38.862,102.205,39.475,133.111,7.65c-6.732,26.928-20.503,97.002,22.644,100.368
		c15.912,1.224,30.906-8.263,36.72-22.95c5.814-15.3-10.098-23.256-22.95-24.174c14.383-42.534,26.929-85.374,36.108-129.438
		c15.3-72.216,13.464-145.962-4.284-217.566c-1.529-6.426-3.672-13.158-5.813-19.584c28.458,6.12,50.796-5.508,61.812-33.66
		C493.292,103.424,490.845,63.032,472.484,43.754z M139.862,59.666c3.06-4.284,6.732-9.18,11.016-11.934
		c0.306-0.306,2.448-1.224,1.53-0.918c0.306,0,1.224-0.306,1.53-0.306c0.612,0,1.836,0,0.612,0c1.836,0.306,0-0.306,1.224,0.306
		c0.306,0,1.53,1.224,1.53,1.224c1.224,1.53,1.53,2.754,1.836,3.672c1.224,3.672,1.53,5.813,1.53,9.792
		c0,3.672-0.306,6.12-1.836,9.792c-0.612,1.836-2.142,3.672-3.672,4.59c-0.306,0-0.612,0-0.918,0.306c0,0-1.224,0-1.53,0
		c1.224,0-1.224-0.306-1.53-0.306c-0.612,0-1.53-0.612-2.448-1.224c-5.508-3.06-9.18-8.568-13.77-12.546l0,0
		C136.496,62.42,138.638,61.808,139.862,59.666z M158.834,138.308c-0.306-0.612-0.612-0.918-1.224-1.224
		c-6.426-1.53-12.852,0.918-19.89-1.224c-8.874-2.754-15.912-8.874-22.032-15.606c-13.77-15.3-16.524-34.578-1.224-49.572
		c2.448-2.448,0.918-5.508-1.224-6.732c-0.612-0.612-1.224-1.224-2.142-0.612c-3.366,1.224-7.344,2.754-11.016,3.06
		c-2.754,0.306-3.672-0.306-5.202-1.836c-2.142-2.448-2.448-8.874-1.53-13.158c0.612-3.06,1.224-4.896,2.754-7.344
		c0.918-1.53,1.836-2.142,3.06-2.448h0.918c1.53,0.612,2.142,1.224,3.366,2.448c3.672,3.672,5.814,8.568,8.262,12.852
		c2.448,5.508,10.71,1.53,9.18-3.978c-1.53-6.732-1.224-18.36,7.344-18.36c9.18,0,5.202,14.076,2.754,19.278
		c-1.224,2.754-0.306,5.202,1.53,6.426c-3.06-0.612-6.12,1.224-6.426,4.284c-14.076,9.18-11.934,28.458-3.06,40.698
		c9.18,12.546,26.622,21.114,42.534,18.972C163.424,129.434,160.976,133.718,158.834,138.308z M477.992,107.708
		c-2.448,31.824-25.397,51.408-56.916,47.124c-1.224-3.672-2.448-7.65-3.978-11.322l0,0c23.868,1.53,38.861-14.994,42.534-37.638
		c3.06-18.054-2.143-52.02-21.114-60.588c-2.754-1.224-5.202,0.918-4.896,3.672c-5.508,2.142-9.792,6.732-15.912,6.426
		c-4.59-0.306-8.262-4.896-10.098-8.568c-7.65-14.994,12.24-15.3,21.727-13.158c4.896,1.224,8.262-5.814,3.672-8.568
		c-5.509-3.06-11.017-8.874-2.448-11.934c8.874-3.06,13.77,5.202,14.994,12.852c0.918,5.508,8.874,3.672,9.18-1.224
		c0.306-4.59,0.918-12.546,6.12-14.688c3.672-1.224,7.344,0.918,10.098,3.366c3.366,3.06,5.202,7.038,4.896,11.322
		c-0.307,7.038-8.262,9.792-12.853,13.158c-3.06,2.142-2.447,6.426,0,7.956C471.566,67.01,479.828,82.922,477.992,107.708z"/>
	<path d="M389.253,210.524c-1.53-0.918-3.366-0.918-4.896-0.306c3.06-3.366,0.918-10.098-4.284-9.792
		c-26.928,1.836-54.468,13.77-81.702,17.136c-36.108,4.284-77.724,6.12-110.772-11.322c-4.284-2.448-9.486,3.06-7.038,6.732
		c-33.048,19.89-3.672,61.2,22.032,74.664c14.994,7.956,34.578,11.628,50.184,4.284c18.666-8.568,30.294-32.13,26.316-52.326
		c-0.918-5.814-8.874-4.59-10.404,0c-5.202,15.3-4.896,30.906-20.502,39.78c-11.934,6.426-27.54,2.142-38.862-3.06
		c-24.786-11.628-41.004-35.802-22.338-58.446c7.956,5.508,16.83,8.874,26.01,11.628c-2.448,3.366-3.978,7.038-4.284,11.934
		c0,4.59,2.448,9.18,7.038,10.71c11.322,3.978,16.524-9.792,18.36-18.666c15.606,1.53,31.212,1.224,45.594,0.918
		c3.366,0,7.038-0.306,10.71-0.306c-2.142,34.272,28.458,49.572,60.282,43.146c15.606-3.06,29.376-11.934,39.168-24.786
		C397.515,241.736,401.799,219.092,389.253,210.524z M381.603,213.89c-2.448,10.404,3.06,18.666-2.754,29.07
		c-5.814,10.404-18.054,16.524-29.07,19.89c-25.704,7.956-48.96-2.754-52.632-29.376c10.404-0.612,22.338-1.224,33.966-3.06
		c0,0.306,0,0.918,0,1.224c0.307,2.448,1.836,4.284,3.366,6.12c2.754,3.672,7.344,5.508,11.934,5.814
		c9.486,0.918,16.219-11.322,14.076-19.89c8.568-3.06,16.218-6.732,21.727-11.628C381.908,212.666,381.603,213.278,381.603,213.89z"
		/>
	<path d="M375.788,333.842c-55.386-1.224-108.936,15.605-164.628,9.792c-1.224,0-2.448,0.612-2.754,1.53
		c-2.142-1.53-5.202,0.611-3.672,3.06c6.12,12.24,12.24,23.562,20.808,34.272c1.836,2.142,5.814,1.529,7.038-0.918
		c3.672-6.732,7.038-13.771,9.792-20.809c2.754,4.896,5.508,10.099,7.956,15.3c1.224,3.366,4.896,4.59,7.956,2.143
		c6.426-5.814,11.628-12.546,16.83-19.278c8.262,17.748,25.092,17.442,35.191,2.448c2.448,4.59,6.12,8.262,9.792,13.77
		c2.142,3.061,6.12,3.061,8.262,0c5.202-7.344,9.486-14.688,12.546-22.949c3.061,8.262,7.956,15.3,14.688,21.726
		c1.836,1.836,4.896,1.836,6.731,0c6.12-6.426,12.853-19.278,9.792-28.458c-0.306-0.918-0.918-1.836-1.529-2.142
		c1.836,0,3.978-0.307,5.813-0.307C381.908,343.021,381.908,333.842,375.788,333.842z M227.378,371.786
		c-5.508-6.732-10.404-13.771-14.994-20.809c7.65,1.225,15.3,1.836,22.95,2.448C233.192,359.546,230.438,365.666,227.378,371.786z
		 M255.836,367.502c-2.448-4.59-4.896-9.181-7.344-13.771c6.426,0,12.546,0,18.972-0.306
		C264.098,358.321,260.12,362.912,255.836,367.502z M281.54,352.508c7.344-0.612,14.994-1.224,22.645-1.836
		C291.332,363.523,283.682,364.136,281.54,352.508z M323.769,365.054c-3.366-4.59-6.732-9.18-7.956-15.606
		c5.508-0.611,11.016-1.224,16.524-1.836C330.194,353.731,327.135,359.239,323.769,365.054z M362.631,346.082
		c-1.225,3.06-0.918,6.426-1.53,9.485c-0.612,3.061-1.836,5.814-3.672,8.568c-5.508-4.59-9.486-11.322-11.935-18.054
		c6.12-0.612,12.24-1.225,18.36-1.836C363.549,344.857,362.937,345.164,362.631,346.082z"/>
</g>
<g>
</g>
<g>
</g>
<g>
</g>
<g>
</g>
<g>
</g>
<g>
</g>
<g>
</g>
<g>
</g>
<g>
</g>
<g>
</g>
<g>
</g>
<g>
</g>
<g>
</g>
<g>
</g>
<g>
</g>
</svg>
